# Blender 4.0.2
# www.blender.org
mtllib ramp3out_piece2.mtl
o ramp3out.001
v -91.230675 17.615231 5.804553
v -92.634422 -2.042858 21.317835
v -75.367249 -1.538115 23.437517
v -91.200668 17.617567 4.938134
v -90.624428 -1.956149 4.905300
v -73.355049 -1.476905 7.024919
v -78.191299 -1.649757 22.862387
v -74.111145 18.115658 7.906375
v -73.930603 18.122396 7.058074
v -73.963303 19.209755 7.059627
v -90.592438 -3.043597 4.903457
v -92.710426 -3.134935 22.179447
v -75.441101 -2.630128 24.299088
v -91.232674 18.704967 4.939960
v -73.322990 -2.538788 7.023144
v -78.407707 -2.716399 23.668589
vn -0.1134 0.6205 0.7760
vn -0.0997 0.7714 0.6284
vn -0.0880 0.8526 0.5151
vn -0.0881 0.8526 0.5151
vn -0.0998 0.7714 0.6284
vn -0.0294 0.9996 0.0017
vn -0.0882 0.8526 0.5151
vn 0.0294 -0.9996 -0.0017
vn 0.0293 -0.9996 -0.0017
vn -0.9559 -0.0270 -0.2923
vn -0.9559 -0.0275 -0.2923
vn -0.9559 -0.0271 -0.2923
vn -0.9560 -0.0275 -0.2921
vn -0.9559 -0.0276 -0.2923
vn 0.9922 0.0288 0.1214
vn 0.9922 0.0297 0.1214
vn 0.1791 0.0069 -0.9838
vn 0.0348 0.0027 -0.9994
vn 0.2077 0.0078 -0.9782
vn -0.1134 0.6201 0.7763
vn -0.1134 0.6203 0.7762
vn -0.0997 0.7715 0.6284
vn -0.1580 0.6204 0.7682
vn -0.0455 0.6237 0.7804
vn 0.0472 0.0031 -0.9989
vn 0.0056 0.0018 -1.0000
vn 0.2361 0.0086 -0.9717
vn 0.2077 0.0076 -0.9782
vt 12.999756 1.896184
vt 11.000015 1.896184
vt 11.000007 -0.353822
vt 12.999998 -0.353822
vt 12.999997 9.900178
vt 11.000002 9.900167
vt 11.000021 10.000110
vt 13.000011 10.000083
vt 11.000015 8.100148
vt 12.999756 8.100159
vt 11.000265 10.000110
vt 11.082797 1.936528
vt 9.203493 1.936528
vt 9.292198 2.054760
vt 11.082788 2.055658
vt 11.082797 1.896184
vt 9.297307 1.896184
vt 10.988684 -0.353822
vt 11.082787 -0.353822
vt 11.082831 -0.353822
vt 11.082831 -0.478835
vt 10.984390 -0.353822
vt 11.000004 2.021187
vt 13.000002 2.021187
vt 13.000002 1.896184
vt 11.000004 1.896184
vt 12.999999 2.021187
vt 11.000017 2.021187
vt 11.000016 1.896184
vt 13.000007 1.896184
vt 13.000006 8.000174
vt 13.000008 10.000083
vt 11.000004 10.000110
vt 11.000017 8.000202
vt 12.499996 -0.353822
vt 10.499995 -0.353822
vt 10.500017 -0.478820
vt 12.500010 -0.478819
vt 12.500010 -0.353822
vt 12.500010 -0.478820
vt 10.500017 -0.478821
vt 10.500017 -0.353822
vt 10.500253 1.896184
vt 12.500010 1.896184
vt 10.500023 -0.353822
s 0
usemtl "".001
f 2/1/1 3/2/1 8/3/2
f 1/4/3 2/1/1 8/3/2
f 1/5/4 8/6/5 9/7/6
f 4/8/6 1/5/7 9/7/6
f 3/9/8 2/10/8 5/8/8
f 6/11/9 3/9/9 5/8/9
f 15/12/10 16/13/10 7/14/10
f 6/15/11 15/12/12 7/14/12
f 6/16/13 7/17/13 8/18/13
f 9/19/11 6/16/11 8/18/14
f 9/20/15 10/21/15 8/22/16
f 15/23/17 11/24/18 5/25/18
f 6/26/19 15/23/17 5/25/18
f 12/27/20 13/28/20 3/29/20
f 2/30/21 12/27/21 3/29/21
f 12/31/8 11/32/8 15/33/8
f 13/34/8 12/31/8 15/33/8
f 1/35/4 8/36/22 10/37/23
f 14/38/24 1/35/7 10/37/23
f 4/39/25 14/40/26 10/41/17
f 9/42/27 4/39/25 10/41/17
f 6/43/28 5/44/18 4/39/25
f 9/45/27 6/43/19 4/39/25
